# Blender 4.1.1
# www.blender.org
mtllib Trident.mtl
o Cube
v 0.208511 1.594623 -0.767777
v 0.012692 -1.000000 -0.546655
v 0.208511 1.594623 0.767777
v 0.012692 -1.000000 0.546655
v -0.208511 1.594623 -0.767777
v -0.012692 -1.000000 -0.546655
v -0.208511 1.594623 0.767777
v -0.012692 -1.000000 0.546655
v -0.167510 0.022676 0.110597
v 0.167510 0.022676 -0.110597
v 0.103738 1.710734 -0.143913
v 0.103738 1.710734 0.143913
v -0.103738 1.710734 0.143913
v -0.103738 1.710734 -0.143913
v 0.208511 0.826846 -0.767777
v 0.208511 0.826846 0.767777
v 0.271577 1.528011 -0.333333
v 0.271577 1.528011 0.333333
v -0.271577 1.528011 0.333333
v -0.271577 1.528011 -0.333333
v 0.103738 6.414655 -0.143913
v 0.103738 6.414655 0.143913
v -0.103738 6.414655 0.143913
v -0.103738 6.414655 -0.143913
v -0.012692 -1.000000 -0.487361
v -0.050252 -1.000000 -0.033178
v -0.107114 1.198654 -0.487361
v -0.050252 -1.000000 0.033178
v -0.012692 -1.000000 0.487361
v -0.167510 0.919939 -0.110597
v 0.012692 -1.000000 0.487361
v 0.050252 -1.000000 0.033178
v 0.107114 1.198654 0.487361
v 0.050252 -1.000000 -0.033178
v 0.012692 -1.000000 -0.487361
v 0.167510 0.919939 0.110597
v -0.208511 0.826846 0.767777
v 0.167510 0.022676 0.110597
v -0.208511 0.826846 -0.767777
v -0.167510 0.022676 -0.110597
v 0.107114 1.198654 -0.487361
v 0.359120 1.352682 -0.440783
v 0.167510 0.919939 -0.110597
v -0.167510 0.919939 0.110597
v -0.107114 1.198654 0.487361
v -0.359120 1.352682 0.440783
v -0.359120 1.352682 -0.440783
v 0.359120 1.352682 0.440783
vn -0.0000 0.9884 -0.1516
vn -0.0000 -0.0000 1.0000
vn -0.8378 -0.1767 0.5166
vn 0.9410 -0.0381 -0.3362
vn 0.9935 -0.1139 -0.0000
vn -0.0000 -0.0000 -1.0000
vn 0.8378 -0.1767 -0.5166
vn -0.9935 -0.1139 -0.0000
vn -0.9410 -0.0381 0.3362
vn -0.0000 -1.0000 -0.0000
vn -0.0000 0.9884 0.1516
vn 0.7365 0.6765 -0.0000
vn -0.7365 0.6765 -0.0000
vn -0.0000 0.7197 -0.6943
vn -0.0000 0.7197 0.6943
vn -0.0000 1.0000 -0.0000
vn 1.0000 -0.0000 -0.0000
vn -1.0000 -0.0000 -0.0000
vn -0.5039 -0.6538 0.5644
vn -0.5039 -0.6538 -0.5644
vn -0.0000 -0.0755 -0.9971
vn -0.0000 -0.0755 0.9971
vn -0.0000 -0.1202 -0.9928
vn -0.0000 -0.1202 0.9928
vn 0.5039 -0.6538 0.5644
vn 0.5039 -0.6538 -0.5644
vn -0.0000 -0.8039 -0.5947
vn -0.0000 -0.8039 0.5947
vn 0.9834 -0.1178 -0.1379
vn -0.9834 -0.1178 0.1379
vn -0.9564 -0.0589 -0.2862
vn 0.9564 -0.0589 0.2862
vn 0.8378 -0.1767 0.5166
vn 0.9410 -0.0381 0.3362
vn -0.9410 -0.0381 -0.3362
vn -0.8378 -0.1767 -0.5166
vt 0.625000 0.666667
vt 0.875000 0.666667
vt 0.875000 0.750000
vt 0.625000 0.750000
vt 0.500000 0.750000
vt 0.625000 1.000000
vt 0.500000 1.000000
vt 0.375000 0.064080
vt 0.625000 0.000000
vt 0.625000 0.083333
vt 0.394253 0.083333
vt 0.375000 0.685920
vt 0.375000 0.750000
vt 0.375000 0.602587
vt 0.375000 0.647413
vt 0.500000 0.250000
vt 0.625000 0.250000
vt 0.625000 0.500000
vt 0.500000 0.500000
vt 0.375000 0.564080
vt 0.625000 0.583333
vt 0.394253 0.583333
vt 0.375000 0.102587
vt 0.375000 0.147413
vt 0.375000 0.185920
vt 0.375000 0.250000
vt 0.125000 0.685920
vt 0.125000 0.750000
vt 0.125000 0.602587
vt 0.375000 0.602587
vt 0.125000 0.647413
vt 0.875000 0.500000
vt 0.875000 0.583333
vt 0.676602 0.597347
vt 0.823398 0.597347
vt 0.676602 0.652653
vt 0.823398 0.652653
vt 0.375000 0.083333
vt 0.375000 0.166667
vt 0.394253 0.166667
vt 0.125000 0.564080
vt 0.125000 0.500000
vt 0.375000 0.500000
vt 0.375000 1.000000
vt 0.375000 0.647413
vt 0.394253 0.666667
vt 0.375000 0.564080
vt 0.625000 0.166667
vt 0.394253 0.083333
vt 0.394253 0.666667
vt 0.375000 0.000000
vt 0.500000 0.000000
vt 0.394253 0.166667
s 0
usemtl Material
f 18/1/1 19/2/1 7/3/1 3/4/1
f 16/5/2 3/4/2 7/6/2 37/7/2
f 45/8/3 7/9/3 19/10/3 46/11/3
f 33/12/4 3/4/4 16/5/4 4/13/4 31/12/4
f 10/14/5 38/15/5 32/15/5 34/14/5
f 39/16/6 5/17/6 1/18/6 15/19/6
f 41/20/7 1/18/7 17/21/7 42/22/7
f 9/23/8 40/24/8 26/24/8 28/23/8
f 27/25/9 5/17/9 39/16/9 6/26/9 25/25/9
f 29/27/10 31/12/10 4/13/10 8/28/10
f 26/29/10 34/30/10 32/15/10 28/31/10
f 1/18/11 5/32/11 20/33/11 17/21/11
f 11/34/6 14/35/6 24/35/6 21/34/6
f 11/34/12 12/36/12 18/1/12 17/21/12
f 13/37/13 14/35/13 20/33/13 19/2/13
f 14/35/14 11/34/14 17/21/14 20/33/14
f 12/36/15 13/37/15 19/2/15 18/1/15
f 21/34/16 24/35/16 23/37/16 22/36/16
f 12/36/17 11/34/17 21/34/17 22/36/17
f 13/37/2 12/36/2 22/36/2 23/37/2
f 14/35/18 13/37/18 23/37/18 24/35/18
f 44/38/19 45/8/19 46/11/19
f 27/39/20 30/24/20 47/40/20
f 9/31/2 38/15/2 36/15/2 44/31/2
f 31/12/6 29/27/6 45/27/6 33/12/6
f 25/41/2 35/20/2 41/20/2 27/41/2
f 10/30/6 40/29/6 30/29/6 43/30/6
f 6/42/10 2/43/10 35/20/10 25/41/10
f 34/30/21 26/29/21 40/29/21 10/30/21
f 28/31/22 32/15/22 38/15/22 9/31/22
f 6/26/23 39/16/23 15/19/23 2/43/23
f 4/13/24 16/5/24 37/7/24 8/44/24
f 33/12/25 36/45/25 48/46/25
f 43/30/26 41/47/26 42/22/26
f 43/30/27 30/29/27 27/41/27 41/20/27
f 33/12/28 45/27/28 44/31/28 36/15/28
f 17/21/29 18/1/29 48/46/29 36/15/29
f 43/14/17 36/15/17 38/15/17 10/14/17
f 19/10/30 20/48/30 47/40/30 30/24/30
f 46/49/31 19/10/31 30/24/31 44/23/31
f 42/22/32 17/21/32 36/15/32 43/14/32
f 48/50/33 18/1/33 3/4/33 33/12/33
f 2/43/34 15/19/34 1/18/34 41/20/34 35/20/34
f 8/51/35 37/52/35 7/9/35 45/8/35 29/8/35
f 47/53/36 20/48/36 5/17/36 27/25/36
f 44/23/18 30/24/18 40/24/18 9/23/18
