# Blender 4.2.3 LTS
# www.blender.org
mtllib Bird.mtl
o Cube
v 0.657931 1.000000 1.000000
v 0.657931 -1.000000 1.000000
v -0.709090 1.000000 1.173487
v -0.709090 -1.000000 1.173487
v 0.688189 2.453386 0.710268
v -0.282762 2.453386 0.883755
v -0.231982 2.074074 3.882103
v -0.724482 -1.664724 0.653663
v -0.488584 1.350450 5.232024
v -0.028057 -1.700279 0.653663
v -1.000000 -1.000000 0.000000
v 0.958408 1.107515 -0.097924
v -1.000000 1.000000 0.000000
v 1.000000 -1.000000 0.000000
v 1.004514 2.345901 -0.101349
v -0.376268 2.453386 0.000000
v -1.113805 -1.664724 0.000000
v -0.003625 -1.700279 0.000000
v 1.158293 3.164352 0.372442
v 0.187342 3.164352 0.372442
v 2.177648 3.353408 0.000000
v 0.093836 3.353408 0.000000
v -0.488584 1.039203 5.532179
v -0.191762 2.074074 3.882103
v 0.015416 2.904339 0.495991
v -0.078090 3.024254 0.000000
v -0.431957 1.039203 5.532179
v 0.986367 2.904339 0.495991
v -0.431957 1.350450 5.232024
v 1.342446 3.024254 0.000000
v -0.421562 0.488404 3.080514
v -0.417757 1.000000 1.173487
v -0.417757 -1.000000 1.173487
v -0.315707 2.290620 2.853323
v -0.075838 2.453386 0.883755
v -0.153449 2.290620 2.853323
v -0.421562 1.150958 3.080514
v -0.731194 -1.828313 0.653663
v -1.032340 -1.828313 0.000000
v 0.394266 3.164352 0.372442
v -0.650008 1.150958 3.080514
v 0.396573 3.353408 0.000000
v -0.650008 0.488404 3.080514
v 0.222340 2.904339 0.495991
v -3.231365 -3.061812 0.000000
v -2.842042 -3.061812 0.420690
v -3.149900 -3.225400 0.000000
v -2.848754 -3.225400 0.420690
v 0.705786 1.107707 -0.878799
v 0.657931 -1.000000 -1.000000
v -0.709090 1.000000 -1.173487
v -0.709090 -1.000000 -1.173487
v 0.723165 2.345688 -0.628555
v -0.282762 2.453386 -0.883755
v -0.231982 2.074074 -3.882103
v -0.724482 -1.664724 -0.653663
v -0.488584 1.350450 -5.232024
v -0.028057 -1.700279 -0.653663
v 1.158293 3.164352 -0.372442
v 0.187342 3.164352 -0.372442
v -0.488584 1.039203 -5.532179
v -0.191762 2.074074 -3.882103
v 0.015416 2.904339 -0.495991
v -0.431957 1.039203 -5.532179
v 0.986367 2.904339 -0.495991
v -0.431957 1.350450 -5.232024
v -0.421562 0.488404 -3.080514
v -0.417757 1.000000 -1.173487
v -0.417757 -1.000000 -1.173487
v -0.315707 2.290620 -2.853323
v -0.075838 2.453386 -0.883755
v -0.153449 2.290620 -2.853323
v -0.421562 1.150958 -3.080514
v -0.731194 -1.828313 -0.653663
v 0.394266 3.164352 -0.372442
v -0.650008 1.150958 -3.080514
v -0.650008 0.488404 -3.080514
v 0.222340 2.904339 -0.495991
v -2.842042 -3.061812 -0.420690
v -2.848754 -3.225400 -0.420690
v 1.000000 1.000000 0.000000
v 1.044268 2.453386 0.000000
v 0.657931 1.000000 -1.000000
v 0.688189 2.453386 -0.710268
v 0.242886 1.101185 0.073779
v 0.288992 2.339571 0.070354
v -0.009736 1.101376 -0.707096
v 0.007644 2.339358 -0.456852
vn -0.9209 0.3498 0.1721
vn -0.9591 0.2828 0.0073
vn 0.9462 -0.0000 0.3237
vn 0.1826 0.1697 0.9684
vn 0.1462 -0.9888 -0.0309
vn 0.6155 -0.7763 0.1364
vn -0.2893 -0.5033 0.8143
vn 0.9257 0.0139 0.3779
vn -0.7737 0.5257 0.3536
vn -0.9362 -0.0453 0.3485
vn -0.9706 -0.0000 0.2406
vn -0.0000 0.8917 0.4526
vn -0.0000 0.4292 0.9032
vn -0.0000 -0.9757 0.2192
vn -0.9310 0.3576 0.0737
vn 0.4808 -0.7155 0.5069
vn 0.8121 -0.3814 0.4416
vn -0.0000 0.9786 0.2060
vn 1.0000 0.0013 0.0043
vn 0.0972 0.5073 0.8563
vn -0.8252 0.5419 0.1590
vn -0.0000 0.6942 0.7198
vn -0.0000 0.6520 0.7582
vn -0.0000 0.8814 0.4725
vn -0.0000 -0.7883 0.6153
vn 0.9741 -0.2252 0.0198
vn -0.0000 0.9966 0.0824
vn 0.1202 -0.5477 0.8280
vn -0.9995 -0.0000 0.0310
vn -0.5239 0.7624 0.3797
vn 1.0000 -0.0000 0.0020
vn -0.9976 0.0205 0.0666
vn 0.9675 -0.2525 0.0135
vn 0.1592 -0.0000 0.9872
vn -0.7612 -0.1739 0.6247
vn 0.5367 -0.7883 -0.3009
vn -0.0000 -0.0000 -1.0000
vn -0.1124 0.0046 0.9937
vn -0.9209 0.3498 -0.1721
vn -0.9591 0.2828 -0.0073
vn 0.9462 -0.0000 -0.3237
vn 0.1826 0.1697 -0.9684
vn 0.1462 -0.9888 0.0309
vn 0.6155 -0.7763 -0.1364
vn -0.2893 -0.5033 -0.8143
vn 0.2305 -0.1959 0.9532
vn -0.7737 0.5257 -0.3536
vn -0.9362 -0.0453 -0.3485
vn -0.9706 -0.0000 -0.2406
vn -0.0000 0.8917 -0.4526
vn -0.0000 0.4292 -0.9032
vn -0.0000 -0.9757 -0.2192
vn -0.9310 0.3576 -0.0737
vn 0.4808 -0.7155 -0.5069
vn 0.8121 -0.3814 -0.4416
vn -0.0000 0.9786 -0.2060
vn 1.0000 0.0013 -0.0043
vn 0.0972 0.5073 -0.8563
vn -0.8252 0.5419 -0.1590
vn -0.0000 0.6942 -0.7198
vn -0.0000 0.6520 -0.7582
vn -0.0000 0.8814 -0.4725
vn -0.0000 -0.7883 -0.6153
vn 0.9741 -0.2252 -0.0198
vn -0.0000 0.9966 -0.0824
vn 0.1202 -0.5477 -0.8280
vn -0.9995 -0.0000 -0.0310
vn -0.5239 0.7624 -0.3797
vn 1.0000 -0.0000 -0.0020
vn -0.9976 0.0205 -0.0666
vn 0.9675 -0.2525 -0.0135
vn 0.1592 -0.0000 -0.9872
vn -0.7612 -0.1739 -0.6247
vn 0.5367 -0.7883 0.3009
vn -0.1124 0.0046 -0.9937
vn 0.9254 -0.0315 -0.3778
vn 0.9485 0.0067 -0.3167
vn 0.8888 0.0220 -0.4578
vn 0.9242 0.0593 -0.3773
vn 0.9257 0.0139 -0.3779
vn -0.0082 1.0000 0.0029
vn 0.0079 -1.0000 -0.0038
vn -0.2334 0.0060 -0.9724
vt 0.625000 0.125000
vt 0.625000 0.000000
vt 0.375000 0.625000
vt 0.625000 0.625000
vt 0.625000 0.750000
vt 0.375000 0.750000
vt 0.625000 0.946721
vt 0.625000 0.946721
vt 0.178279 0.625000
vt 0.178279 0.750000
vt 0.375000 0.946721
vt 0.375000 1.000000
vt 0.375000 0.000000
vt 0.375000 0.125000
vt 0.821721 0.625000
vt 0.875000 0.625000
vt 0.875000 0.750000
vt 0.821721 0.750000
vt 0.625000 1.000000
vt 0.125000 0.625000
vt 0.125000 0.750000
vt 0.000000 0.000000
vt 0.625000 0.736543
vt 0.625000 0.733652
vt 0.625000 0.638365
vt 0.625000 0.641248
s 0
usemtl Material
f 13/1/1 3/2/1 6/2/1 16/1/1
f 6/2/2 3/2/2 41/2/2 34/2/2
f 14/3/3 81/4/3 1/5/3 2/6/3
f 32/7/4 1/5/4 5/5/4 35/8/4
f 39/9/5 18/3/5 10/6/5 38/10/5
f 14/3/6 2/6/6 10/6/6 18/3/6
f 33/11/7 4/12/7 8/12/7 38/11/7
f 1/5/8 81/4/8 82/4/8 5/5/8
f 26/1/9 25/2/9 20/2/9 22/1/9
f 4/13/10 11/14/10 17/14/10 8/13/10
f 4/13/11 3/2/11 13/1/11 11/14/11
f 42/15/12 22/16/12 20/17/12 40/18/12
f 44/8/13 28/5/13 19/5/13 40/8/13
f 43/12/14 31/11/14 27/11/14 23/12/14
f 34/2/15 41/2/15 9/2/15 7/2/15
f 28/5/16 30/4/16 21/4/16 19/5/16
f 5/5/17 82/4/17 30/4/17 28/5/17
f 36/8/18 34/19/18 7/19/18 24/8/18
f 31/11/19 37/7/19 29/7/19 27/11/19
f 35/8/20 5/5/20 28/5/20 44/8/20
f 16/1/21 6/2/21 25/2/21 26/1/21
f 27/11/22 29/7/22 9/19/22 23/12/22
f 6/19/23 35/8/23 44/8/23 25/19/23
f 9/19/24 29/7/24 24/8/24 7/19/24
f 4/12/25 33/11/25 31/11/25 43/12/25
f 25/19/13 44/8/13 40/8/13 20/19/13
f 32/7/26 35/8/26 36/8/26 37/7/26
f 21/4/12 42/15/12 40/18/12 19/5/12
f 35/8/27 6/19/27 34/19/27 36/8/27
f 2/6/28 33/11/28 38/11/28 10/6/28
f 3/2/29 4/13/29 43/13/29 41/2/29
f 8/13/30 17/14/30 45/14/30 46/13/30
f 33/11/31 32/7/31 37/7/31 31/11/31
f 41/2/32 43/13/32 23/13/32 9/2/32
f 37/7/33 36/8/33 24/8/33 29/7/33
f 2/6/34 1/5/34 32/7/34 33/11/34
f 45/20/35 47/9/35 48/10/35 46/21/35
f 39/9/36 38/10/36 48/10/36 47/9/36
f 17/22/37 39/22/37 47/22/37 45/22/37
f 38/11/38 8/12/38 46/12/38 48/11/38
f 13/1/39 16/1/39 54/2/39 51/2/39
f 54/2/40 70/2/40 76/2/40 51/2/40
f 14/3/41 50/6/41 83/5/41 81/4/41
f 68/7/42 71/8/42 84/5/42 83/5/42
f 39/9/43 74/10/43 58/6/43 18/3/43
f 14/3/44 18/3/44 58/6/44 50/6/44
f 69/11/45 74/11/45 56/12/45 52/12/45
f 49/23/46 53/24/46 88/24/46 87/23/46
f 26/1/47 22/1/47 60/2/47 63/2/47
f 52/13/48 56/13/48 17/14/48 11/14/48
f 52/13/49 11/14/49 13/1/49 51/2/49
f 42/15/50 75/18/50 60/17/50 22/16/50
f 78/8/51 75/8/51 59/5/51 65/5/51
f 77/12/52 61/12/52 64/11/52 67/11/52
f 70/2/53 55/2/53 57/2/53 76/2/53
f 65/5/54 59/5/54 21/4/54 30/4/54
f 84/5/55 65/5/55 30/4/55 82/4/55
f 72/8/56 62/8/56 55/19/56 70/19/56
f 67/11/57 64/11/57 66/7/57 73/7/57
f 71/8/58 78/8/58 65/5/58 84/5/58
f 16/1/59 26/1/59 63/2/59 54/2/59
f 64/11/60 61/12/60 57/19/60 66/7/60
f 54/19/61 63/19/61 78/8/61 71/8/61
f 57/19/62 55/19/62 62/8/62 66/7/62
f 52/12/63 77/12/63 67/11/63 69/11/63
f 63/19/51 60/19/51 75/8/51 78/8/51
f 68/7/64 73/7/64 72/8/64 71/8/64
f 21/4/50 59/5/50 75/18/50 42/15/50
f 71/8/65 72/8/65 70/19/65 54/19/65
f 50/6/66 58/6/66 74/11/66 69/11/66
f 51/2/67 76/2/67 77/13/67 52/13/67
f 56/13/68 79/13/68 45/14/68 17/14/68
f 69/11/69 67/11/69 73/7/69 68/7/69
f 76/2/70 57/2/70 61/13/70 77/13/70
f 73/7/71 66/7/71 62/8/71 72/8/71
f 50/6/72 69/11/72 68/7/72 83/5/72
f 45/20/73 79/21/73 80/10/73 47/9/73
f 39/9/74 47/9/74 80/10/74 74/10/74
f 74/11/75 80/11/75 79/12/75 56/12/75
f 12/25/76 15/26/76 82/4/76 81/4/76
f 49/23/77 12/25/77 81/4/77 83/5/77
f 15/26/78 53/24/78 84/5/78 82/4/78
f 53/24/79 49/23/79 83/5/79 84/5/79
f 87/23/80 88/24/80 86/26/80 85/25/80
f 12/25/81 49/23/81 87/23/81 85/25/81
f 53/24/82 15/26/82 86/26/82 88/24/82
f 15/26/83 12/25/83 85/25/83 86/26/83
