# Blender 4.2.3 LTS
# www.blender.org
mtllib Rabbit.mtl
o Cube
v 0.708696 2.031015 0.960357
v 0.825305 -1.000000 1.000000
v -1.000000 1.000000 1.000000
v -1.000000 -0.238012 1.000000
v 0.898575 2.815951 0.366617
v 0.220731 2.782177 0.489293
v 0.775709 1.101923 1.271426
v 0.549976 -0.055457 1.271426
v 0.559653 2.782177 0.489293
v -1.000000 -0.238012 0.000000
v 0.987038 1.235008 -0.150082
v -1.000000 1.000000 0.000000
v 0.825305 -1.000000 0.000000
v 0.898575 2.782177 0.000000
v 0.220731 2.782177 0.000000
v -0.425189 -1.000000 0.000000
v 0.558550 2.477975 0.891144
v -0.186746 2.696705 0.737263
v 0.987038 2.546622 -0.150082
v 0.708696 2.477975 0.891144
v -0.186746 2.696705 0.000000
v 0.559653 3.678369 0.000000
v 0.559653 3.709213 0.423104
v 0.792441 3.709213 0.146080
v 0.326866 3.709213 0.146080
v 0.326866 3.709213 0.423104
v 0.792441 3.709213 0.423104
v 0.559653 3.709213 0.146080
v 0.898575 3.678369 0.000000
v 0.220731 3.678369 0.000000
v 0.559653 3.307995 0.489293
v 0.273434 3.307995 0.489293
v 0.898575 3.290409 0.366617
v 0.559653 4.851479 0.146080
v 0.559653 4.851479 0.423104
v 0.792441 4.851479 0.146080
v 0.326866 4.851479 0.146080
v 0.326866 4.851479 0.423104
v 0.792441 4.851479 0.423104
v 0.898575 2.782177 0.489293
v 0.898575 3.307995 0.489293
v 0.898575 3.290409 0.000000
v 0.898575 2.815951 0.000000
v 0.991793 3.196299 0.000000
v 0.991793 3.099789 0.000000
v 0.991793 3.099789 0.109003
v 0.991793 3.196299 0.109003
v 0.965235 3.231664 0.000000
v 0.965235 2.874696 0.000000
v 0.965235 2.874696 0.321224
v 0.965235 3.231664 0.321224
v 1.557308 1.101923 0.990245
v 1.547189 0.839040 0.334881
v -0.425189 -1.000000 1.000000
v 1.247914 -0.055457 0.985976
v 0.421462 1.905958 0.979722
v 1.258033 -0.057974 0.334881
v 0.987038 1.432560 0.933018
v 0.987038 2.696705 0.737263
v -0.006481 1.000000 1.000000
v 0.400146 2.696705 0.737263
v 0.746656 2.043169 1.169829
v 0.857686 2.293281 1.157239
v 0.671448 2.001137 1.339291
v 0.834611 2.307890 1.243981
v 1.286794 1.318851 0.911561
v 1.319310 1.568964 0.804655
v 1.412482 1.276820 1.047856
v 1.389767 1.583573 0.860265
v 1.374032 1.330183 0.842030
v 1.393346 1.478737 0.778533
v 1.448685 1.305218 0.922983
v 1.435194 1.487415 0.811563
v 0.708696 2.031015 -0.960357
v 0.825305 -1.000000 -1.000000
v -1.000000 1.000000 -1.000000
v -1.000000 -0.238012 -1.000000
v 0.898575 2.815951 -0.366617
v 0.220731 2.782177 -0.489293
v 0.775709 1.101923 -1.271426
v 0.549976 -0.055457 -1.271426
v 0.559653 2.782177 -0.489293
v 0.558550 2.477975 -0.891144
v -0.186746 2.696705 -0.737263
v 0.708696 2.477975 -0.891144
v 0.559653 3.709213 -0.423104
v 0.792441 3.709213 -0.146080
v 0.326866 3.709213 -0.146080
v 0.326866 3.709213 -0.423104
v 0.792441 3.709213 -0.423104
v 0.559653 3.709213 -0.146080
v 0.559653 3.307995 -0.489293
v 0.273434 3.307995 -0.489293
v 0.898575 3.290409 -0.366617
v 0.559653 4.851479 -0.146080
v 0.559653 4.851479 -0.423104
v 0.792441 4.851479 -0.146080
v 0.326866 4.851479 -0.146080
v 0.326866 4.851479 -0.423104
v 0.792441 4.851479 -0.423104
v 0.898575 2.782177 -0.489293
v 0.898575 3.307995 -0.489293
v 0.991793 3.099789 -0.109003
v 0.991793 3.196299 -0.109003
v 0.965235 2.874696 -0.321224
v 0.965235 3.231664 -0.321224
v 1.557308 1.101923 -0.990245
v 1.547189 0.839040 -0.334881
v -0.425189 -1.000000 -1.000000
v 1.247914 -0.055457 -0.985976
v 0.421462 1.905958 -0.979722
v 1.258033 -0.057974 -0.334881
v 0.987038 1.521213 -0.767418
v 0.987038 2.546622 -0.608633
v -0.006481 1.000000 -1.000000
v 0.400146 2.696705 -0.737263
v 0.746656 2.043169 -1.169829
v 0.857686 2.293281 -1.157239
v 0.671448 2.001137 -1.339291
v 0.834611 2.307890 -1.243981
v 1.286794 1.318851 -0.911561
v 1.319310 1.568964 -0.804655
v 1.412482 1.276820 -1.047856
v 1.389767 1.583573 -0.860265
v 1.374032 1.330183 -0.842030
v 1.393346 1.478737 -0.778533
v 1.448685 1.305218 -0.922983
v 1.435194 1.487415 -0.811563
v 0.987038 1.000000 0.000000
v 0.987038 2.696705 0.000000
v 0.987038 1.432560 -0.933018
v 0.987038 2.696705 -0.737263
v 0.372205 1.235008 -0.150082
v 0.372205 2.546622 -0.150082
v 0.372205 1.521213 -0.767418
v 0.372205 2.546622 -0.608633
vn 0.8881 -0.1905 -0.4183
vn -0.0000 -0.0000 1.0000
vn -0.0000 -1.0000 -0.0000
vn 0.9585 -0.2794 0.0568
vn -0.9018 0.4322 -0.0000
vn -0.7983 -0.6022 -0.0000
vn 0.3564 -0.0841 0.9305
vn -0.0000 0.1530 0.9882
vn 1.0000 -0.0000 -0.0000
vn -1.0000 -0.0000 -0.0000
vn -0.0000 0.9454 0.3259
vn 0.6948 0.7192 -0.0000
vn -0.2053 0.9787 -0.0000
vn -0.9970 0.0370 0.0677
vn 0.6612 0.7502 -0.0000
vn -0.0000 0.9784 -0.2066
vn -0.0000 0.1628 0.9867
vn 0.8941 0.4032 0.1949
vn -0.9290 0.3041 0.2109
vn -0.0000 1.0000 -0.0000
vn -0.0000 -0.0000 -1.0000
vn 0.6612 -0.7502 -0.0000
vn 0.5629 -0.0000 0.8266
vn 0.9923 -0.0000 0.1242
vn 0.9931 -0.1172 -0.0000
vn 0.7996 0.6005 -0.0000
vn 0.4737 0.8056 -0.3557
vn 0.1409 -0.2353 0.9617
vn -0.0432 0.7279 0.6843
vn -0.3310 0.0676 0.9412
vn 0.9104 -0.4138 0.0062
vn 0.6067 -0.0944 -0.7893
vn 0.3920 0.1408 0.9091
vn 0.0724 -0.0119 0.9973
vn -0.0000 0.5754 0.8179
vn -0.4796 0.2454 0.8425
vn 0.6229 0.2055 0.7549
vn -0.7285 0.3696 0.5768
vn 0.4045 -0.9140 -0.0323
vn 0.2498 0.9041 0.3467
vn 0.4374 0.5621 -0.7019
vn -0.7580 -0.6500 -0.0536
vn 0.6697 0.6513 -0.3566
vn -0.5591 -0.0374 -0.8282
vn 0.6210 -0.3749 -0.6883
vn -0.5824 -0.2543 -0.7721
vn 0.9083 0.2652 0.3236
vn -0.0647 -0.9688 -0.2391
vn 0.8881 -0.1905 0.4183
vn 0.9585 -0.2794 -0.0568
vn 0.3564 -0.0841 -0.9305
vn -0.0000 0.1530 -0.9882
vn -0.0000 -0.1530 0.9882
vn -0.0000 0.9454 -0.3259
vn -0.9970 0.0370 -0.0677
vn -0.0000 0.9784 0.2066
vn -0.0000 0.1628 -0.9867
vn 0.8941 0.4032 -0.1949
vn -0.9290 0.3041 -0.2109
vn 0.5629 -0.0000 -0.8266
vn 0.9923 -0.0000 -0.1242
vn 0.4737 0.8056 0.3557
vn 0.1409 -0.2353 -0.9617
vn -0.0432 0.7280 -0.6843
vn -0.3310 0.0676 -0.9412
vn 0.9104 -0.4138 -0.0062
vn 0.6067 -0.0944 0.7893
vn 0.3920 0.1408 -0.9091
vn 0.0724 -0.0119 -0.9973
vn -0.0000 0.5754 -0.8179
vn -0.4796 0.2454 -0.8425
vn 0.6229 0.2055 -0.7549
vn -0.7285 0.3696 -0.5768
vn 0.4045 -0.9140 0.0323
vn 0.2498 0.9041 -0.3467
vn 0.4374 0.5621 0.7019
vn -0.7580 -0.6500 0.0536
vn 0.6697 0.6513 0.3566
vn -0.5591 -0.0374 0.8282
vn 0.6210 -0.3749 0.6883
vn -0.5824 -0.2543 0.7721
vn 0.9083 0.2652 -0.3236
vn -0.0647 -0.9688 0.2391
vn -0.0000 0.9072 0.4206
vt 0.625000 0.768638
vt 0.625000 0.775925
vt 0.375000 0.875000
vt 0.625000 0.875000
vt 0.625000 1.000000
vt 0.375000 1.000000
vt 0.250000 0.625000
vt 0.375000 0.625000
vt 0.375000 0.750000
vt 0.250000 0.750000
vt 0.390554 0.641028
vt 0.609446 0.641028
vt 0.608972 0.747757
vt 0.390554 0.750000
vt 0.822186 0.707958
vt 0.750000 0.707958
vt 0.625000 0.125000
vt 0.625000 0.000000
vt 0.125000 0.625000
vt 0.125000 0.750000
vt 0.608972 0.857606
vt 0.391028 0.845107
vt 0.625000 0.875000
vt 0.677814 0.707958
vt 0.625000 0.750000
vt 0.625000 0.625000
vt 0.375000 0.000000
vt 0.375000 0.125000
vt 0.875000 0.750000
vt 0.750000 0.750000
vt 0.677814 0.625000
vt 0.822186 0.625000
vt 0.875000 0.625000
vt 0.700419 0.689963
vt 0.700419 0.642995
vt 0.799581 0.642995
vt 0.799581 0.689963
vt 0.677814 0.630726
vt 0.677814 0.702232
vt 0.750000 0.642995
vt 0.750000 0.625000
vt 0.750000 0.689963
vt 0.677814 0.702232
vt 0.677814 0.630726
vt 0.677814 0.683212
vt 0.677814 0.649745
vt 0.677814 0.683212
vt 0.625000 0.855637
vt 0.625000 0.848761
vt 0.625000 0.729718
vt 0.625000 0.725600
vt 0.625000 0.645597
vt 0.625000 0.649398
s 0
usemtl Material
f 1/1/1 20/2/1 63/2/1 62/1/1
f 54/3/2 60/4/2 3/5/2 4/6/2
f 16/7/3 13/8/3 2/9/3 54/10/3
f 57/11/4 53/12/4 52/13/4 55/14/4
f 6/15/2 9/16/2 31/16/2 32/15/2
f 12/17/5 3/18/5 18/18/5 21/17/5
f 10/19/6 16/7/6 54/10/6 4/20/6
f 55/14/7 52/13/7 7/21/7 8/22/7
f 3/5/8 60/4/8 61/23/8 18/5/8
f 9/16/2 40/24/2 41/24/2 31/16/2
f 58/25/9 129/26/9 130/26/9 59/25/9
f 4/27/10 3/18/10 12/17/10 10/28/10
f 9/16/11 6/15/11 18/29/11 61/30/11
f 14/31/12 40/24/12 59/25/12 130/26/12
f 40/24/11 9/16/11 61/30/11 59/25/11
f 6/15/13 15/32/13 21/33/13 18/29/13
f 27/34/9 24/35/9 36/35/9 39/34/9
f 25/36/10 26/37/10 38/37/10 37/36/10
f 15/32/14 6/15/14 32/15/14 30/32/14
f 42/38/15 33/39/15 51/39/15 48/38/15
f 28/40/16 24/35/16 29/31/16 22/41/16
f 25/36/16 28/40/16 22/41/16 30/32/16
f 23/42/17 26/37/17 32/15/17 31/16/17
f 24/35/18 27/34/18 41/24/18 29/31/18
f 27/34/17 23/42/17 31/16/17 41/24/17
f 26/37/19 25/36/19 30/32/19 32/15/19
f 34/40/20 37/36/20 38/37/20 35/42/20
f 36/35/20 34/40/20 35/42/20 39/34/20
f 28/40/21 25/36/21 37/36/21 34/40/21
f 23/42/2 27/34/2 39/34/2 35/42/2
f 26/37/2 23/42/2 35/42/2 38/37/2
f 24/35/21 28/40/21 34/40/21 36/35/21
f 5/43/9 33/39/9 41/24/9 40/24/9
f 42/38/21 43/44/21 14/31/21 29/31/21
f 43/44/9 5/43/9 40/24/9 14/31/9
f 33/39/9 42/38/9 29/31/9 41/24/9
f 46/45/9 45/46/9 44/46/9 47/47/9
f 5/43/22 43/44/22 49/44/22 50/43/22
f 33/39/23 5/43/23 50/43/23 51/39/23
f 43/44/21 42/38/21 48/38/21 49/44/21
f 44/46/21 45/46/21 49/44/21 48/38/21
f 46/45/24 47/47/24 51/39/24 50/43/24
f 45/46/25 46/45/25 50/43/25 49/44/25
f 47/47/26 44/46/26 48/38/26 51/39/26
f 52/13/27 53/12/27 129/26/27 58/25/27
f 55/14/28 8/22/28 54/3/28 2/9/28
f 7/21/29 52/13/29 58/25/29 60/4/29
f 8/22/30 7/21/30 60/4/30 54/3/30
f 57/11/31 55/14/31 2/9/31 13/8/31
f 53/12/32 57/11/32 13/8/32 129/26/32
f 20/2/33 1/1/33 58/25/33 59/25/33
f 1/1/34 56/48/34 60/4/34 58/25/34
f 17/49/35 20/2/35 59/25/35 61/23/35
f 56/48/36 17/49/36 61/23/36 60/4/36
f 65/49/37 64/48/37 68/48/37 69/49/37
f 17/49/38 56/48/38 64/48/38 65/49/38
f 56/48/39 1/1/39 62/1/39 64/48/39
f 20/2/40 17/49/40 65/49/40 63/2/40
f 67/2/41 69/49/41 73/49/41 71/2/41
f 64/48/42 62/1/42 66/1/42 68/48/42
f 63/2/43 65/49/43 69/49/43 67/2/43
f 62/1/44 63/2/44 67/2/44 66/1/44
f 72/48/45 70/1/45 71/2/45 73/49/45
f 66/1/46 67/2/46 71/2/46 70/1/46
f 69/49/47 68/48/47 72/48/47 73/49/47
f 68/48/48 66/1/48 70/1/48 72/48/48
f 74/1/49 117/1/49 118/2/49 85/2/49
f 109/3/21 77/6/21 76/5/21 115/4/21
f 16/7/3 109/10/3 75/9/3 13/8/3
f 112/11/50 110/14/50 107/13/50 108/12/50
f 79/15/21 93/15/21 92/16/21 82/16/21
f 12/17/5 21/17/5 84/18/5 76/18/5
f 10/19/6 77/20/6 109/10/6 16/7/6
f 110/14/51 81/22/51 80/21/51 107/13/51
f 76/5/52 84/5/52 116/23/52 115/4/52
f 82/16/21 92/16/21 102/24/21 101/24/21
f 113/50/53 114/51/53 136/51/53 135/50/53
f 77/27/10 10/28/10 12/17/10 76/18/10
f 82/16/54 116/30/54 84/29/54 79/15/54
f 14/31/12 130/26/12 132/25/12 101/24/12
f 101/24/54 132/25/54 116/30/54 82/16/54
f 79/15/13 84/29/13 21/33/13 15/32/13
f 90/34/9 100/34/9 97/35/9 87/35/9
f 88/36/10 98/36/10 99/37/10 89/37/10
f 15/32/55 30/32/55 93/15/55 79/15/55
f 42/38/15 48/38/15 106/39/15 94/39/15
f 91/40/56 22/41/56 29/31/56 87/35/56
f 88/36/56 30/32/56 22/41/56 91/40/56
f 86/42/57 92/16/57 93/15/57 89/37/57
f 87/35/58 29/31/58 102/24/58 90/34/58
f 90/34/57 102/24/57 92/16/57 86/42/57
f 89/37/59 93/15/59 30/32/59 88/36/59
f 95/40/20 96/42/20 99/37/20 98/36/20
f 97/35/20 100/34/20 96/42/20 95/40/20
f 91/40/2 95/40/2 98/36/2 88/36/2
f 86/42/21 96/42/21 100/34/21 90/34/21
f 89/37/21 99/37/21 96/42/21 86/42/21
f 87/35/2 97/35/2 95/40/2 91/40/2
f 78/43/9 101/24/9 102/24/9 94/39/9
f 43/44/9 14/31/9 101/24/9 78/43/9
f 94/39/9 102/24/9 29/31/9 42/38/9
f 103/45/9 104/47/9 44/46/9 45/46/9
f 78/43/22 105/43/22 49/44/22 43/44/22
f 94/39/60 106/39/60 105/43/60 78/43/60
f 103/45/61 105/43/61 106/39/61 104/47/61
f 45/46/25 49/44/25 105/43/25 103/45/25
f 104/47/26 106/39/26 48/38/26 44/46/26
f 107/13/62 131/25/62 129/26/62 108/12/62
f 110/14/63 75/9/63 109/3/63 81/22/63
f 80/21/64 115/4/64 131/25/64 107/13/64
f 81/22/65 109/3/65 115/4/65 80/21/65
f 112/11/66 13/8/66 75/9/66 110/14/66
f 108/12/67 129/26/67 13/8/67 112/11/67
f 85/2/68 132/25/68 131/25/68 74/1/68
f 74/1/69 131/25/69 115/4/69 111/48/69
f 83/49/70 116/23/70 132/25/70 85/2/70
f 111/48/71 115/4/71 116/23/71 83/49/71
f 120/49/72 124/49/72 123/48/72 119/48/72
f 83/49/73 120/49/73 119/48/73 111/48/73
f 111/48/74 119/48/74 117/1/74 74/1/74
f 85/2/75 118/2/75 120/49/75 83/49/75
f 122/2/76 126/2/76 128/49/76 124/49/76
f 119/48/77 123/48/77 121/1/77 117/1/77
f 118/2/78 122/2/78 124/49/78 120/49/78
f 117/1/79 121/1/79 122/2/79 118/2/79
f 127/48/80 128/49/80 126/2/80 125/1/80
f 121/1/81 125/1/81 126/2/81 122/2/81
f 124/49/82 128/49/82 127/48/82 123/48/82
f 123/48/83 127/48/83 125/1/83 121/1/83
f 11/52/9 19/53/9 130/26/9 129/26/9
f 113/50/9 11/52/9 129/26/9 131/25/9
f 19/53/9 114/51/9 132/25/9 130/26/9
f 114/51/9 113/50/9 131/25/9 132/25/9
f 135/50/9 136/51/9 134/53/9 133/52/9
f 11/52/84 113/50/84 135/50/84 133/52/84
f 114/51/3 19/53/3 134/53/3 136/51/3
f 19/53/21 11/52/21 133/52/21 134/53/21
