# Blender 4.2.3 LTS
# www.blender.org
mtllib Batterfly.mtl
o Cube
v 0.065746 0.620963 0.493464
v 0.065746 -0.568183 0.343635
v -0.065746 0.620963 0.493464
v -0.065746 -0.568183 0.343635
v -0.083229 -0.408815 0.197279
v 0.083229 0.599274 0.190742
v -0.083229 0.599274 0.190742
v 0.083229 -0.408815 0.197279
v -0.065746 -0.333333 0.724034
v -0.065746 0.333333 0.779678
v 0.065746 0.333333 0.779678
v 0.065746 -0.333333 0.724034
v 0.109159 0.333333 0.240600
v 0.109159 -0.333333 0.240600
v -0.109159 0.333333 0.240600
v -0.109159 -0.333333 0.240600
v -0.094626 -0.866860 0.000000
v 0.094626 0.866860 0.000000
v -0.094626 0.866860 0.000000
v 0.094626 -0.866860 0.000000
v -0.282727 -0.333333 0.000000
v -0.282727 0.333333 0.000000
v 0.282727 -0.333333 0.000000
v 0.282727 0.333333 0.000000
v -0.065746 0.000000 0.458183
v 0.065746 0.000000 0.458183
v 0.109159 0.000000 0.240600
v -0.109159 0.000000 0.240600
v 0.282727 0.000000 0.000000
v -0.282727 0.000000 0.000000
v 0.000000 0.946110 0.769430
v 0.000000 -0.893329 0.619601
v 0.000000 -0.565849 0.198298
v 0.000000 0.756309 0.189723
v 0.000000 -0.333333 1.000000
v 0.000000 0.333333 1.055644
v 0.000000 1.000000 0.000000
v 0.000000 -1.000000 0.000000
v 0.000000 0.000000 0.734149
v 0.065746 0.620963 -0.493464
v 0.065746 -0.568183 -0.343635
v -0.065746 0.620963 -0.493464
v -0.065746 -0.568183 -0.343635
v -0.083229 -0.408815 -0.197279
v 0.083229 0.599274 -0.190742
v -0.083229 0.599274 -0.190742
v 0.083229 -0.408815 -0.197279
v -0.065746 -0.333333 -0.724034
v -0.065746 0.333333 -0.779678
v 0.065746 0.333333 -0.779678
v 0.065746 -0.333333 -0.724034
v 0.109159 0.333333 -0.240600
v 0.109159 -0.333333 -0.240600
v -0.109159 0.333333 -0.240600
v -0.109159 -0.333333 -0.240600
v -0.065746 0.000000 -0.458183
v 0.065746 0.000000 -0.458183
v 0.109159 0.000000 -0.240600
v -0.109159 0.000000 -0.240600
v 0.000000 0.946110 -0.769430
v 0.000000 -0.893329 -0.619601
v 0.000000 -0.565849 -0.198298
v 0.000000 0.756309 -0.189723
v 0.000000 -0.333333 -1.000000
v 0.000000 0.333333 -1.055644
v 0.000000 0.000000 -0.734149
vn -0.9437 0.3254 -0.0593
vn -0.9796 0.1079 0.1698
vn 0.8051 -0.4622 -0.3716
vn 0.9936 0.0888 0.0696
vn 0.8229 0.2521 0.5092
vn 0.5480 -0.3332 0.7673
vn -0.9936 0.0888 0.0696
vn -0.6876 0.4235 0.5897
vn -0.9859 -0.1580 0.0554
vn -0.9920 -0.0549 0.1138
vn 0.7258 -0.2991 0.6195
vn 0.8110 -0.0000 0.5850
vn 0.9859 -0.1580 0.0554
vn 0.9920 -0.0549 0.1138
vn -0.9785 -0.1427 0.1491
vn -0.9493 -0.2181 0.2262
vn -0.8110 -0.0000 0.5850
vn -0.7258 -0.2991 0.6195
vn -0.8229 0.2521 0.5092
vn -0.9566 0.1818 0.2279
vn 0.9912 0.0490 0.1228
vn -0.9912 0.0490 0.1228
vn 0.9566 0.1818 0.2279
vn 0.9493 -0.2181 0.2262
vn 0.9785 -0.1427 0.1491
vn 0.6876 0.4235 0.5897
vn -0.5480 -0.3332 0.7673
vn -0.8051 -0.4622 -0.3716
vn 0.9796 0.1079 0.1698
vn 0.9437 0.3254 -0.0593
vn -0.9437 0.3254 0.0593
vn -0.9796 0.1079 -0.1698
vn 0.8051 -0.4622 0.3716
vn 0.9936 0.0888 -0.0696
vn 0.8229 0.2521 -0.5092
vn 0.5480 -0.3332 -0.7673
vn -0.9936 0.0888 -0.0696
vn -0.6876 0.4235 -0.5897
vn -0.9859 -0.1580 -0.0554
vn -0.9920 -0.0549 -0.1138
vn 0.7258 -0.2991 -0.6195
vn 0.8110 -0.0000 -0.5850
vn 0.9859 -0.1580 -0.0554
vn 0.9920 -0.0549 -0.1138
vn -0.9785 -0.1427 -0.1491
vn -0.9493 -0.2181 -0.2262
vn -0.8110 -0.0000 -0.5850
vn -0.7258 -0.2991 -0.6195
vn -0.8229 0.2521 -0.5092
vn -0.9566 0.1818 -0.2279
vn 0.9912 0.0490 -0.1228
vn -0.9912 0.0490 -0.1228
vn 0.9566 0.1818 -0.2279
vn 0.9493 -0.2181 -0.2262
vn 0.9785 -0.1427 -0.1491
vn 0.6876 0.4235 -0.5897
vn -0.5480 -0.3332 -0.7673
vn -0.8051 -0.4622 0.3716
vn 0.9796 0.1079 -0.1698
vn 0.9437 0.3254 0.0593
vt 0.750000 0.666667
vt 0.875000 0.666667
vt 0.875000 0.750000
vt 0.750000 0.750000
vt 0.541667 0.875000
vt 0.625000 0.875000
vt 0.625000 1.000000
vt 0.541667 1.000000
vt 0.250000 0.666667
vt 0.375000 0.666667
vt 0.375000 0.750000
vt 0.250000 0.750000
vt 0.541667 0.666667
vt 0.625000 0.666667
vt 0.625000 0.750000
vt 0.541667 0.750000
vt 0.541667 0.625000
vt 0.625000 0.625000
vt 0.250000 0.625000
vt 0.375000 0.625000
vt 0.541667 0.000000
vt 0.625000 0.000000
vt 0.625000 0.083333
vt 0.541667 0.083333
vt 0.750000 0.625000
vt 0.875000 0.625000
vt 0.375000 0.000000
vt 0.458333 0.000000
vt 0.458333 0.083333
vt 0.375000 0.083333
vt 0.500000 0.000000
vt 0.500000 0.083333
vt 0.458333 0.625000
vt 0.458333 0.666667
vt 0.500000 0.625000
vt 0.500000 0.666667
vt 0.458333 0.750000
vt 0.500000 0.750000
vt 0.375000 0.875000
vt 0.458333 0.875000
vt 0.458333 1.000000
vt 0.375000 1.000000
vt 0.500000 0.875000
vt 0.500000 1.000000
vt 0.541667 0.125000
vt 0.500000 0.125000
vt 0.458333 0.125000
vt 0.375000 0.125000
vt 0.625000 0.125000
vt 0.125000 0.625000
vt 0.125000 0.666667
vt 0.125000 0.750000
s 0
usemtl Material
f 34/1/1 7/2/1 3/3/1 31/4/1
f 36/5/2 31/6/2 3/7/2 10/8/2
f 33/9/3 8/10/3 2/11/3 32/12/3
f 13/13/4 6/14/4 1/15/4 11/16/4
f 24/17/5 18/18/5 6/14/5 13/13/5
f 38/19/6 20/20/6 8/10/6 33/9/6
f 10/21/7 3/22/7 7/23/7 15/24/7
f 37/25/8 19/26/8 7/2/8 34/1/8
f 4/27/9 9/28/9 16/29/9 5/30/9
f 25/31/10 10/21/10 15/24/10 28/32/10
f 20/20/11 23/33/11 14/34/11 8/10/11
f 29/35/12 24/17/12 13/13/12 27/36/12
f 8/10/13 14/34/13 12/37/13 2/11/13
f 27/36/14 13/13/14 11/16/14 26/38/14
f 32/39/15 35/40/15 9/41/15 4/42/15
f 39/43/16 36/5/16 10/8/16 25/44/16
f 28/32/17 15/24/17 22/45/17 30/46/17
f 5/30/18 16/29/18 21/47/18 17/48/18
f 15/24/19 7/23/19 19/49/19 22/45/19
f 16/29/17 28/32/17 30/46/17 21/47/17
f 35/40/20 39/43/20 25/44/20 9/41/20
f 14/34/21 27/36/21 26/38/21 12/37/21
f 23/33/12 29/35/12 27/36/12 14/34/12
f 9/28/22 25/31/22 28/32/22 16/29/22
f 12/37/23 26/38/23 39/43/23 35/40/23
f 26/38/24 11/16/24 36/5/24 39/43/24
f 2/11/25 12/37/25 35/40/25 32/39/25
f 18/18/26 37/25/26 34/1/26 6/14/26
f 17/50/27 38/19/27 33/9/27 5/51/27
f 5/51/28 33/9/28 32/12/28 4/52/28
f 11/16/29 1/15/29 31/6/29 36/5/29
f 6/14/30 34/1/30 31/4/30 1/15/30
f 63/1/31 60/4/31 42/3/31 46/2/31
f 65/5/32 49/8/32 42/7/32 60/6/32
f 62/9/33 61/12/33 41/11/33 47/10/33
f 52/13/34 50/16/34 40/15/34 45/14/34
f 24/17/35 52/13/35 45/14/35 18/18/35
f 38/19/36 62/9/36 47/10/36 20/20/36
f 49/21/37 54/24/37 46/23/37 42/22/37
f 37/25/38 63/1/38 46/2/38 19/26/38
f 43/27/39 44/30/39 55/29/39 48/28/39
f 56/31/40 59/32/40 54/24/40 49/21/40
f 20/20/41 47/10/41 53/34/41 23/33/41
f 29/35/42 58/36/42 52/13/42 24/17/42
f 47/10/43 41/11/43 51/37/43 53/34/43
f 58/36/44 57/38/44 50/16/44 52/13/44
f 61/39/45 43/42/45 48/41/45 64/40/45
f 66/43/46 56/44/46 49/8/46 65/5/46
f 59/32/47 30/46/47 22/45/47 54/24/47
f 44/30/48 17/48/48 21/47/48 55/29/48
f 54/24/49 22/45/49 19/49/49 46/23/49
f 55/29/47 21/47/47 30/46/47 59/32/47
f 64/40/50 48/41/50 56/44/50 66/43/50
f 53/34/51 51/37/51 57/38/51 58/36/51
f 23/33/42 53/34/42 58/36/42 29/35/42
f 48/28/52 55/29/52 59/32/52 56/31/52
f 51/37/53 64/40/53 66/43/53 57/38/53
f 57/38/54 66/43/54 65/5/54 50/16/54
f 41/11/55 61/39/55 64/40/55 51/37/55
f 18/18/56 45/14/56 63/1/56 37/25/56
f 17/50/57 44/51/57 62/9/57 38/19/57
f 44/51/58 43/52/58 61/12/58 62/9/58
f 50/16/59 65/5/59 60/6/59 40/15/59
f 45/14/60 40/15/60 60/4/60 63/1/60
