# Blender 4.2.3 LTS
# www.blender.org
mtllib Leopard.mtl
o Cube
v 2.000616 1.000000 1.000000
v 2.000616 -1.000000 1.000000
v -1.000000 2.824961 0.603472
v -0.852310 1.363183 0.921933
v -2.000616 -1.000000 1.000000
v 0.000000 1.000000 1.000000
v 0.000000 -1.000000 1.000000
v -2.000616 0.000000 1.000000
v 2.000616 0.000000 1.000000
v 0.000000 0.000000 1.000000
v 0.852310 1.625946 0.777539
v 1.000000 3.506234 0.434056
v -2.891584 1.503114 1.000000
v -2.891584 2.676506 0.603472
v -3.207891 1.248148 0.418296
v -3.534266 2.377553 0.145576
v 1.306026 2.808450 0.378838
v 1.595605 3.438696 0.378838
v 1.958716 2.665670 0.378838
v 1.773664 3.438696 0.378838
v 2.195331 2.820899 0.115599
v 2.123485 3.412300 0.253787
v -1.000000 2.417400 1.000000
v 1.000000 3.161399 0.830584
v -2.891584 2.437764 1.000000
v -3.534266 2.158516 0.145576
v 1.595605 3.317978 0.378838
v 1.773664 3.317978 0.378838
v 2.195331 2.957015 0.115599
v -1.000000 1.503114 0.000000
v -1.000000 2.824961 0.000000
v 1.000000 1.811409 0.000000
v 1.000000 3.506234 0.000000
v -2.891584 1.503114 0.000000
v -2.891584 2.676506 0.000000
v -3.321861 1.503114 0.000000
v -3.534266 2.377553 0.000000
v 1.306026 2.808450 0.000000
v 1.595605 3.438696 0.096498
v 1.958716 2.665670 0.000000
v 1.773664 3.438696 0.096498
v 2.195331 2.724273 0.000000
v 2.123485 3.412300 0.000000
v 2.195331 3.053641 0.000000
v -3.534266 2.158516 0.000000
v 1.306026 3.438696 0.000000
v 1.306026 3.438696 0.378838
v 1.958716 3.438696 0.000000
v 1.958716 3.438696 0.378838
v 1.306026 3.281414 0.378838
v 1.958716 3.281414 0.378838
v 1.696717 3.540154 0.480295
v 1.874776 3.540154 0.480295
v 1.696717 3.512119 0.344398
v 1.874776 3.512119 0.344398
v 1.696717 3.479370 0.459090
v 1.874776 3.479370 0.459090
v -2.000616 -1.000000 0.000000
v 0.000000 0.000000 0.000000
v 2.000616 1.000000 0.000000
v 2.000616 -1.000000 0.000000
v 0.000000 -1.000000 0.000000
v 0.000000 1.000000 0.000000
v 2.000616 0.000000 0.000000
v -2.000616 0.000000 0.000000
v -1.299610 1.248148 0.793210
v -0.852310 1.363183 0.394398
v 1.000000 1.811409 0.830584
v 0.852310 1.625946 0.394398
v 1.361587 1.155389 0.500997
v 0.455104 1.015657 0.500997
v 0.455104 1.015657 0.781530
v 1.361587 1.155389 0.704744
v 2.845348 1.162007 0.480650
v 2.827003 1.022275 0.480650
v 2.827003 1.022275 0.761183
v 2.845348 1.162007 0.684396
v 2.989929 1.143026 0.480650
v 2.971584 1.003294 0.480650
v 2.971584 1.003294 0.761183
v 2.989929 1.143026 0.684396
v -1.000000 1.503114 1.000000
v -1.299610 1.248148 0.206790
v -2.888846 1.248148 0.793210
v -3.321861 1.503114 0.494374
v -3.207891 1.248148 0.206790
v -2.984403 1.248148 0.206790
v -3.539371 0.451776 0.281968
v -3.495116 0.451776 0.677312
v -3.642871 0.451776 0.281968
v -2.759113 0.451776 0.281968
v -2.759113 0.451776 0.677312
v -3.642871 0.451776 0.424558
v -2.816983 -0.851512 0.362046
v -2.795512 -0.851512 0.553860
v -2.867200 -0.851512 0.362046
v -2.438415 -0.851512 0.362046
v -2.438415 -0.851512 0.553860
v -2.867200 -0.851512 0.431228
v -2.611463 -0.993250 0.362046
v -2.589992 -0.993250 0.553860
v -2.661680 -0.993250 0.362046
v -2.232894 -0.993250 0.362046
v -2.232894 -0.993250 0.553860
v -2.661680 -0.993250 0.431228
v 2.000616 1.000000 -1.000000
v 2.000616 -1.000000 -1.000000
v -1.000000 2.824961 -0.603472
v -0.852310 1.363183 -0.921933
v -2.000616 -1.000000 -1.000000
v 0.000000 1.000000 -1.000000
v 0.000000 -1.000000 -1.000000
v -2.000616 0.000000 -1.000000
v 2.000616 0.000000 -1.000000
v 0.000000 0.000000 -1.000000
v 0.852310 1.625946 -0.777539
v 1.000000 3.506234 -0.434056
v -2.891584 1.503114 -1.000000
v -2.891584 2.676506 -0.603472
v -3.207891 1.248148 -0.418296
v -3.534266 2.377553 -0.145576
v 1.306026 2.808450 -0.378838
v 1.595605 3.438696 -0.378838
v 1.958716 2.665670 -0.378838
v 1.773664 3.438696 -0.378838
v 2.195331 2.820899 -0.115599
v 2.123485 3.412300 -0.253787
v -0.753117 2.337819 -0.979087
v 0.753118 2.905769 -0.851497
v -2.891584 2.437764 -1.000000
v -3.534266 2.158516 -0.145576
v 1.595605 3.317978 -0.378838
v 1.773664 3.317978 -0.378838
v 2.195331 2.957015 -0.115599
v 1.595605 3.438696 -0.096498
v 1.773664 3.438696 -0.096498
v 1.306026 3.438696 -0.378838
v 1.958716 3.438696 -0.378838
v 1.306026 3.281414 -0.378838
v 1.958716 3.281414 -0.378838
v 1.696717 3.540154 -0.480295
v 1.874776 3.540154 -0.480295
v 1.696717 3.512119 -0.344398
v 1.874776 3.512119 -0.344398
v 1.696717 3.479370 -0.459090
v 1.874776 3.479370 -0.459090
v -1.299610 1.248148 -0.793210
v -0.852310 1.363183 -0.394398
v 0.753118 2.024025 -0.851497
v 0.852310 1.625946 -0.394398
v 1.361587 1.155389 -0.500997
v 0.455104 1.015657 -0.500997
v 0.455104 1.015657 -0.781530
v 1.361587 1.155389 -0.704744
v 2.845348 1.162007 -0.480650
v 2.827003 1.022275 -0.480650
v 2.827003 1.022275 -0.761183
v 2.845348 1.162007 -0.684396
v 2.989929 1.143026 -0.480650
v 2.971584 1.003294 -0.480650
v 2.971584 1.003294 -0.761183
v 2.989929 1.143026 -0.684396
v -0.753118 1.791843 -0.979087
v -1.299610 1.248148 -0.206790
v -2.888846 1.248148 -0.793210
v -3.321861 1.503114 -0.494374
v -3.207891 1.248148 -0.206790
v -2.984403 1.248148 -0.206790
v -3.539371 0.451776 -0.281968
v -3.495116 0.451776 -0.677312
v -3.642871 0.451776 -0.281968
v -2.759113 0.451776 -0.281968
v -2.759113 0.451776 -0.677312
v -3.642871 0.451776 -0.424558
v -2.816983 -0.851512 -0.362046
v -2.795512 -0.851512 -0.553860
v -2.867200 -0.851512 -0.362046
v -2.438415 -0.851512 -0.362046
v -2.438415 -0.851512 -0.553860
v -2.867200 -0.851512 -0.431228
v -2.611463 -0.993250 -0.362046
v -2.589992 -0.993250 -0.553860
v -2.661680 -0.993250 -0.362046
v -2.232894 -0.993250 -0.362046
v -2.232894 -0.993250 -0.553860
v -2.661680 -0.993250 -0.431228
v 1.000000 3.161399 -0.830584
v 1.000000 1.811409 -0.830584
v -1.000000 1.503114 -1.000000
v -1.000000 2.417400 -1.000000
v 0.702669 2.905769 -0.125710
v 0.702669 2.024025 -0.125710
v -0.803566 1.791843 -0.253300
v -0.803566 2.337819 -0.253300
v -3.321861 2.074197 0.494374
v -3.321861 2.461873 0.494374
v -3.321861 2.461873 0.000000
v -3.321861 2.074197 0.000000
v -3.321861 2.074197 -0.494374
v -3.321861 2.461873 -0.494374
v -4.805208 1.782062 0.000000
v -4.805208 1.563025 0.000000
v -4.805208 1.563025 0.145576
v -4.805208 1.782062 0.145576
v -4.805208 1.563025 -0.145576
v -4.805208 1.782062 -0.145576
v -5.627161 0.973701 0.000000
v -5.503376 0.861757 0.000000
v -5.503376 0.861757 0.110922
v -5.627161 0.973701 0.110922
v -5.503376 0.861757 -0.110922
v -5.627161 0.973701 -0.110922
v -6.242132 0.293680 0.000000
v -6.118347 0.181736 0.000000
v -6.118347 0.181736 0.110922
v -6.242132 0.293680 0.110922
v -6.118347 0.181736 -0.110922
v -6.242132 0.293680 -0.110922
v 2.123485 3.095203 0.253787
v 2.123485 2.682710 0.253787
v 2.123485 3.095203 0.000000
v 2.123485 2.682710 0.000000
v 2.123485 3.095203 -0.253787
v 2.123485 2.682710 -0.253787
v 2.195331 3.053641 0.212225
v 2.195331 2.724273 0.212225
v 2.195331 2.957015 0.000000
v 2.195331 2.820899 0.000000
v 2.195331 3.053641 -0.212225
v 2.195331 2.724273 -0.212225
vn -0.0000 -1.0000 -0.0000
vn 1.0000 -0.0000 -0.0000
vn -0.0000 -0.0000 1.0000
vn -0.0000 1.0000 -0.0000
vn -0.1963 0.7113 0.6749
vn 0.0925 -0.0537 0.9943
vn -0.3224 0.9466 -0.0000
vn 0.4790 -0.8778 -0.0000
vn -0.0262 0.7749 0.6315
vn -0.8776 0.4794 -0.0000
vn -0.6936 0.3853 0.6086
vn 0.2155 0.9765 -0.0000
vn 0.8279 -0.0000 0.5609
vn 0.6045 -0.0000 0.7966
vn -0.5957 -0.0932 0.7978
vn 0.1582 0.9874 -0.0000
vn -0.0000 -0.4452 0.8954
vn 0.5125 0.5322 0.6739
vn -0.7616 -0.0000 0.6481
vn 0.0844 -0.0000 0.9964
vn -1.0000 -0.0000 -0.0000
vn 0.1029 -0.9947 -0.0000
vn -0.2137 -0.9769 -0.0000
vn -0.4464 0.8948 -0.0000
vn -0.0782 0.9969 -0.0000
vn 0.9560 -0.2934 -0.0000
vn -0.0000 0.9794 -0.2020
vn -0.0000 -0.3294 0.9442
vn -0.5986 0.7992 -0.0536
vn -0.0000 0.9588 -0.2840
vn 0.5957 0.0932 -0.7978
vn 0.5986 -0.7992 0.0536
vn -0.6878 -0.7259 -0.0000
vn 0.1349 -0.3703 0.9191
vn 0.7823 -0.6229 -0.0000
vn 0.1411 -0.9152 -0.3775
vn 0.0078 0.4617 0.8870
vn 0.6786 0.7345 -0.0000
vn -0.2569 -0.9664 -0.0000
vn 0.0294 -0.1905 -0.9812
vn 0.1302 0.9915 -0.0000
vn -0.0107 0.0353 -0.9993
vn -0.0045 1.0000 -0.0000
vn 0.0028 -1.0000 -0.0000
vn 0.9915 -0.1302 -0.0000
vn -0.1302 -0.9915 -0.0000
vn 0.0623 0.4744 0.8781
vn -0.0000 -0.0000 -1.0000
vn 0.6481 -0.7616 -0.0000
vn -0.0000 -0.6299 0.7767
vn -0.9129 -0.4081 -0.0000
vn -0.6718 -0.4709 0.5717
vn -0.0000 -0.6299 -0.7767
vn -0.0000 -0.0613 -0.9981
vn 0.9710 0.2389 -0.0000
vn -0.7224 0.4353 0.5373
vn -0.0000 -0.0940 -0.9956
vn -0.0000 -0.1440 0.9896
vn -0.5677 -0.8232 -0.0000
vn -0.7687 -0.4552 0.4494
vn -0.0000 -0.0943 0.9955
vn -0.8593 -0.5114 -0.0000
vn 0.5677 0.8232 -0.0000
vn -0.5388 -0.7813 0.3150
vn -0.1963 0.7113 -0.6749
vn 0.0925 -0.0537 -0.9943
vn -0.0262 0.7749 -0.6315
vn -0.6936 0.3853 -0.6086
vn 0.8279 -0.0000 -0.5609
vn 0.6045 -0.0000 -0.7966
vn -0.5957 -0.0932 -0.7978
vn -0.0000 -0.4452 -0.8954
vn 0.5125 0.5322 -0.6739
vn -0.7616 -0.0000 -0.6481
vn 0.9976 -0.0000 0.0693
vn 0.4243 -0.9055 -0.0000
vn -0.0000 0.9794 0.2020
vn -0.0000 -0.3294 -0.9442
vn -0.5986 0.7992 0.0536
vn -0.0000 0.9588 0.2840
vn 0.5957 0.0932 0.7978
vn 0.5986 -0.7992 -0.0536
vn 0.1349 -0.3703 -0.9191
vn 0.1411 -0.9152 0.3775
vn 0.0078 0.4617 -0.8870
vn 0.0294 -0.1905 0.9812
vn -0.0107 0.0353 0.9993
vn 0.0623 0.4744 -0.8781
vn -0.6718 -0.4709 -0.5717
vn -0.0000 -0.0613 0.9981
vn -0.7224 0.4353 -0.5373
vn -0.0000 -0.0940 0.9956
vn -0.0000 -0.1440 -0.9896
vn -0.7687 -0.4552 -0.4494
vn -0.0000 -0.0943 -0.9955
vn -0.5388 -0.7813 -0.3150
vn 0.0844 -0.0000 -0.9964
vn -0.9976 -0.0000 -0.0693
vn 0.3509 -0.9361 0.0244
vn -0.1515 0.9884 -0.0105
vn -0.8541 -0.0000 0.5201
vn -0.3690 0.9294 -0.0000
vn -0.3690 -0.9294 -0.0000
vn -0.8541 -0.0000 -0.5201
vn 0.7087 -0.7055 -0.0000
vn -0.0332 -0.0124 0.9994
vn -0.4243 0.9055 -0.0000
vn -0.7417 0.6707 -0.0000
vn -0.0332 -0.0124 -0.9994
vn -0.7012 0.7130 -0.0000
vn -0.6707 -0.7417 -0.0000
vn 0.7417 -0.6707 -0.0000
vn 0.5007 -0.0000 0.8656
vn 0.5007 0.8656 -0.0000
vn 0.5007 -0.8656 -0.0000
vn 0.5007 -0.0000 -0.8656
vt 0.250000 0.625000
vt 0.375000 0.625000
vt 0.375000 0.750000
vt 0.250000 0.750000
vt 0.500000 0.625000
vt 0.625000 0.625000
vt 0.625000 0.750000
vt 0.500000 0.750000
vt 0.125000 0.625000
vt 0.125000 0.750000
vt 0.625000 0.875000
vt 0.500000 0.875000
vt 0.750000 0.625000
vt 0.750000 0.750000
vt 0.375000 0.875000
vt 0.500000 1.000000
vt 0.375000 1.000000
vt 0.574134 0.750000
vt 0.625000 1.000000
vt 0.574134 1.000000
vt 0.343095 0.712234
vt 0.156905 0.716736
vt 0.875000 0.625000
vt 0.875000 0.750000
vt 0.125000 0.650849
vt 0.125000 0.724151
vt 0.574134 1.000000
vt 0.125000 0.701627
vt 0.125000 0.663386
vt 0.574134 0.750000
vt 0.605342 0.750000
vt 0.574134 0.375000
vt 0.625000 0.375000
vt 0.625000 0.500000
vt 0.574134 0.500000
vt 0.375000 0.500000
vt 0.574134 0.625000
vt 0.585197 0.521320
vt 0.613937 0.521320
vt 0.625000 0.656840
vt 0.375000 0.000000
vt 0.500000 0.000000
vt 0.500000 0.125000
vt 0.375000 0.125000
vt 0.687500 0.562500
vt 0.156905 0.658232
vt 0.343095 0.662731
vt 0.125000 0.712721
vt 0.125000 0.650849
vt 0.407145 0.969140
vt 0.542121 0.969140
vt 0.585198 0.625000
vt 0.410586 0.780860
vt 0.538686 0.780860
vt 0.613937 0.625000
vt 0.585197 0.521320
vt 0.613937 0.521320
vt 0.395065 0.479529
vt 0.554069 0.479529
vt 0.554069 0.375000
vt 0.395065 0.375000
vt 0.375000 0.375000
vt 0.554070 0.479529
vt 0.395065 0.479529
vt 0.441712 0.431937
vt 0.507423 0.431937
vt 0.507423 0.375000
vt 0.441712 0.375000
vt 0.507423 0.431937
vt 0.441712 0.431937
s 0
usemtl Material
f 62/1/1 61/2/1 2/3/1 7/4/1
f 64/5/2 60/6/2 1/7/2 9/8/2
f 58/9/1 62/1/1 7/4/1 5/10/1
f 9/8/3 1/7/3 6/11/3 10/12/3
f 60/6/4 63/13/4 6/14/4 1/7/4
f 2/3/3 9/8/3 10/12/3 7/15/3
f 61/2/2 64/5/2 9/8/2 2/3/2
f 7/15/3 10/12/3 8/16/3 5/17/3
f 24/18/5 12/7/5 3/19/5 23/20/5
f 11/21/6 4/22/6 72/22/6 73/21/6
f 33/6/7 31/23/7 3/24/7 12/7/7
f 83/25/8 66/26/8 92/26/8 91/25/8
f 23/20/9 3/19/9 14/19/9 25/27/9
f 15/28/10 86/29/10 90/29/10 93/28/10
f 25/27/11 14/19/11 196/19/11 195/20/11
f 33/6/12 12/7/12 47/7/12 46/6/12
f 24/18/13 68/3/13 17/3/13 50/30/13
f 51/18/14 19/3/14 220/3/14 219/18/14
f 18/7/15 27/31/15 56/31/15 52/7/15
f 50/30/3 17/3/3 19/3/3 51/18/3
f 221/32/2 43/33/2 22/34/2 219/35/2
f 48/6/16 49/7/16 22/7/16 43/6/16
f 27/31/17 28/31/17 57/31/17 56/31/17
f 49/7/14 51/18/14 219/18/14 22/7/14
f 12/7/18 24/18/18 50/30/18 47/7/18
f 13/17/19 25/27/19 195/20/19 85/17/19
f 82/17/3 23/20/3 25/27/3 13/17/3
f 68/3/20 24/18/20 23/20/20 82/17/20
f 85/36/21 195/35/21 198/37/21 36/2/21
f 19/3/22 40/2/22 222/2/22 220/3/22
f 17/3/23 38/2/23 40/2/23 19/3/23
f 14/24/24 35/23/24 197/23/24 196/24/24
f 26/38/3 16/39/3 204/39/3 203/38/3
f 3/24/25 31/23/25 35/23/25 14/24/25
f 68/3/26 32/2/26 38/2/26 17/3/26
f 18/7/4 39/40/4 46/6/4 47/7/4
f 41/40/4 20/7/4 49/7/4 48/6/4
f 27/31/3 18/7/3 47/7/3 50/30/3
f 20/7/3 28/31/3 51/18/3 49/7/3
f 28/31/3 27/31/3 50/30/3 51/18/3
f 39/40/4 41/40/4 48/6/4 46/6/4
f 54/40/27 52/7/27 53/7/27 55/40/27
f 52/7/28 56/31/28 57/31/28 53/7/28
f 39/40/29 18/7/29 52/7/29 54/40/29
f 41/40/30 39/40/30 54/40/30 55/40/30
f 28/31/31 20/7/31 53/7/31 57/31/31
f 20/7/32 41/40/32 55/40/32 53/7/32
f 10/12/4 59/5/4 65/5/4 8/16/4
f 5/41/21 8/42/21 65/43/21 58/44/21
f 6/14/21 63/45/21 59/5/21 10/12/21
f 67/46/33 4/22/33 82/10/33 30/9/33
f 4/22/34 11/21/34 68/3/34 82/10/34
f 11/21/35 69/47/35 32/2/35 68/3/35
f 69/47/36 67/46/36 30/9/36 32/2/36
f 73/21/37 72/22/37 76/22/37 77/21/37
f 69/47/38 11/21/38 73/21/38 70/47/38
f 4/22/39 67/46/39 71/46/39 72/22/39
f 67/46/40 69/47/40 70/47/40 71/46/40
f 74/47/41 77/21/41 81/21/41 78/47/41
f 71/46/42 70/47/42 74/47/42 75/46/42
f 70/47/43 73/21/43 77/21/43 74/47/43
f 72/22/44 71/46/44 75/46/44 76/22/44
f 79/46/45 78/47/45 81/21/45 80/22/45
f 76/22/46 75/46/46 79/46/46 80/22/46
f 77/21/47 76/22/47 80/22/47 81/21/47
f 75/46/48 74/47/48 78/47/48 79/46/48
f 66/26/49 83/25/49 30/9/49 82/10/49
f 84/48/50 66/26/50 82/10/50 13/10/50
f 86/29/51 15/28/51 85/10/51 36/9/51
f 15/28/52 84/48/52 13/10/52 85/10/52
f 87/49/53 86/29/53 36/9/53 34/9/53
f 83/25/53 87/49/53 34/9/53 30/9/53
f 90/29/54 88/49/54 94/49/54 96/29/54
f 91/25/55 92/26/55 98/26/55 97/25/55
f 84/48/56 15/28/56 93/28/56 89/48/56
f 86/29/57 87/49/57 88/49/57 90/29/57
f 66/26/58 84/48/58 89/48/58 92/26/58
f 87/49/57 83/25/57 91/25/57 88/49/57
f 99/28/59 96/29/59 102/29/59 105/28/59
f 94/49/48 97/25/48 103/25/48 100/49/48
f 89/48/60 93/28/60 99/28/60 95/48/60
f 92/26/61 89/48/61 95/48/61 98/26/61
f 88/49/54 91/25/54 97/25/54 94/49/54
f 93/28/62 90/29/62 96/29/62 99/28/62
f 103/25/1 104/26/1 101/48/1 100/49/1
f 100/49/1 101/48/1 105/28/1 102/29/1
f 97/25/63 98/26/63 104/26/63 103/25/63
f 96/29/48 94/49/48 100/49/48 102/29/48
f 95/48/64 99/28/64 105/28/64 101/48/64
f 98/26/3 95/48/3 101/48/3 104/26/3
f 62/1/1 112/4/1 107/3/1 61/2/1
f 64/5/2 114/8/2 106/7/2 60/6/2
f 58/9/1 110/10/1 112/4/1 62/1/1
f 114/8/48 115/12/48 111/11/48 106/7/48
f 60/6/4 106/7/4 111/14/4 63/13/4
f 107/3/48 112/15/48 115/12/48 114/8/48
f 61/2/2 107/3/2 114/8/2 64/5/2
f 112/15/48 110/17/48 113/16/48 115/12/48
f 187/18/65 190/20/65 108/19/65 117/7/65
f 116/21/66 154/21/66 153/22/66 109/22/66
f 33/6/7 117/7/7 108/24/7 31/23/7
f 164/25/8 172/25/8 173/26/8 147/26/8
f 190/20/67 130/27/67 119/19/67 108/19/67
f 120/28/10 174/28/10 171/29/10 167/29/10
f 130/27/68 199/20/68 200/19/68 119/19/68
f 33/6/12 46/6/12 137/7/12 117/7/12
f 187/18/69 139/30/69 122/3/69 188/3/69
f 140/18/70 223/18/70 224/3/70 124/3/70
f 123/7/71 141/7/71 145/31/71 132/31/71
f 139/30/48 140/18/48 124/3/48 122/3/48
f 221/32/2 223/35/2 127/34/2 43/33/2
f 48/6/16 43/6/16 127/7/16 138/7/16
f 132/31/72 145/31/72 146/31/72 133/31/72
f 138/7/70 127/7/70 223/18/70 140/18/70
f 117/7/73 137/7/73 139/30/73 187/18/73
f 118/17/74 166/17/74 199/20/74 130/27/74
f 189/17/48 118/17/48 130/27/48 190/20/48
f 163/50/75 128/51/75 194/51/75 193/50/75
f 166/36/21 36/2/21 198/37/21 199/35/21
f 124/3/22 224/3/22 222/2/22 40/2/22
f 122/3/23 124/3/23 40/2/23 38/2/23
f 119/24/24 200/24/24 197/23/24 35/23/24
f 45/52/76 26/38/76 203/38/76 202/52/76
f 108/24/25 119/24/25 35/23/25 31/23/25
f 188/3/26 122/3/26 38/2/26 32/2/26
f 123/7/4 137/7/4 46/6/4 135/40/4
f 136/40/4 48/6/4 138/7/4 125/7/4
f 132/31/48 139/30/48 137/7/48 123/7/48
f 125/7/48 138/7/48 140/18/48 133/31/48
f 133/31/48 140/18/48 139/30/48 132/31/48
f 135/40/4 46/6/4 48/6/4 136/40/4
f 143/40/77 144/40/77 142/7/77 141/7/77
f 141/7/78 142/7/78 146/31/78 145/31/78
f 135/40/79 143/40/79 141/7/79 123/7/79
f 136/40/80 144/40/80 143/40/80 135/40/80
f 133/31/81 146/31/81 142/7/81 125/7/81
f 125/7/82 142/7/82 144/40/82 136/40/82
f 115/12/4 113/16/4 65/5/4 59/5/4
f 110/41/21 58/44/21 65/43/21 113/42/21
f 111/14/21 115/12/21 59/5/21 63/45/21
f 148/46/33 30/9/33 189/10/33 109/22/33
f 109/22/83 189/10/83 188/3/83 116/21/83
f 116/21/35 188/3/35 32/2/35 150/47/35
f 150/47/84 32/2/84 30/9/84 148/46/84
f 154/21/85 158/21/85 157/22/85 153/22/85
f 150/47/38 151/47/38 154/21/38 116/21/38
f 109/22/39 153/22/39 152/46/39 148/46/39
f 148/46/86 152/46/86 151/47/86 150/47/86
f 155/47/41 159/47/41 162/21/41 158/21/41
f 152/46/87 156/46/87 155/47/87 151/47/87
f 151/47/43 155/47/43 158/21/43 154/21/43
f 153/22/44 157/22/44 156/46/44 152/46/44
f 160/46/45 161/22/45 162/21/45 159/47/45
f 157/22/46 161/22/46 160/46/46 156/46/46
f 158/21/88 162/21/88 161/22/88 157/22/88
f 156/46/3 160/46/3 159/47/3 155/47/3
f 147/26/49 189/10/49 30/9/49 164/25/49
f 165/48/53 118/10/53 189/10/53 147/26/53
f 167/29/51 36/9/51 166/10/51 120/28/51
f 120/28/89 166/10/89 118/10/89 165/48/89
f 168/49/50 34/9/50 36/9/50 167/29/50
f 164/25/50 30/9/50 34/9/50 168/49/50
f 171/29/90 177/29/90 175/49/90 169/49/90
f 172/25/55 178/25/55 179/26/55 173/26/55
f 165/48/91 170/48/91 174/28/91 120/28/91
f 167/29/92 171/29/92 169/49/92 168/49/92
f 147/26/93 173/26/93 170/48/93 165/48/93
f 168/49/92 169/49/92 172/25/92 164/25/92
f 180/28/59 186/28/59 183/29/59 177/29/59
f 175/49/3 181/49/3 184/25/3 178/25/3
f 170/48/94 176/48/94 180/28/94 174/28/94
f 173/26/95 179/26/95 176/48/95 170/48/95
f 169/49/90 175/49/90 178/25/90 172/25/90
f 174/28/62 180/28/62 177/29/62 171/29/62
f 184/25/1 181/49/1 182/48/1 185/26/1
f 181/49/1 183/29/1 186/28/1 182/48/1
f 178/25/63 184/25/63 185/26/63 179/26/63
f 177/29/3 183/29/3 181/49/3 175/49/3
f 176/48/96 182/48/96 186/28/96 180/28/96
f 179/26/48 185/26/48 182/48/48 176/48/48
f 149/53/97 129/54/97 187/18/97 188/3/97
f 163/50/97 149/53/97 188/3/97 189/17/97
f 128/51/97 163/50/97 189/17/97 190/20/97
f 129/54/97 128/51/97 190/20/97 187/18/97
f 192/53/97 193/50/97 194/51/97 191/54/97
f 129/54/98 149/53/98 192/53/98 191/54/98
f 128/51/99 129/54/99 191/54/99 194/51/99
f 149/53/100 163/50/100 193/50/100 192/53/100
f 16/39/101 26/38/101 195/35/101 196/34/101
f 37/55/102 16/39/102 196/34/102 197/6/102
f 26/38/103 45/52/103 198/37/103 195/35/103
f 131/56/104 121/57/104 200/34/104 199/35/104
f 121/57/102 37/55/102 197/6/102 200/34/102
f 45/52/103 131/56/103 199/35/103 198/37/103
f 205/56/105 202/52/105 208/52/105 211/56/105
f 203/38/106 204/39/106 210/39/106 209/38/106
f 131/56/76 45/52/76 202/52/76 205/56/76
f 121/57/48 131/56/48 205/56/48 206/57/48
f 16/39/107 37/55/107 201/55/107 204/39/107
f 37/55/107 121/57/107 206/57/107 201/55/107
f 207/55/108 212/57/108 218/57/108 213/55/108
f 210/39/108 207/55/108 213/55/108 216/39/108
f 206/57/109 205/56/109 211/56/109 212/57/109
f 204/39/110 201/55/110 207/55/110 210/39/110
f 201/55/110 206/57/110 212/57/110 207/55/110
f 202/52/105 203/38/105 209/38/105 208/52/105
f 215/38/111 216/39/111 213/55/111 214/52/111
f 217/56/111 214/52/111 213/55/111 218/57/111
f 208/52/112 209/38/112 215/38/112 214/52/112
f 209/38/3 210/39/3 216/39/3 215/38/3
f 211/56/112 208/52/112 214/52/112 217/56/112
f 212/57/48 211/56/48 217/56/48 218/57/48
f 226/58/113 225/59/113 219/35/113 220/36/113
f 225/59/114 44/60/114 221/32/114 219/35/114
f 42/61/115 226/58/115 220/36/115 222/62/115
f 229/63/116 230/64/116 224/36/116 223/35/116
f 44/60/114 229/63/114 223/35/114 221/32/114
f 230/64/115 42/61/115 222/62/115 224/36/115
f 21/65/2 29/66/2 225/59/2 226/58/2
f 29/66/2 227/67/2 44/60/2 225/59/2
f 228/68/2 21/65/2 226/58/2 42/61/2
f 134/69/2 126/70/2 230/64/2 229/63/2
f 227/67/2 134/69/2 229/63/2 44/60/2
f 126/70/2 228/68/2 42/61/2 230/64/2
f 134/69/2 227/67/2 29/66/2 21/65/2 228/68/2 126/70/2
